<?xml version="1.0" encoding="utf-8"?>
<!-- Generator: Adobe Illustrator 22.0.1, SVG Export Plug-In . SVG Version: 6.00 Build 0)  -->
<svg version="1.1" id="LOGO" xmlns="http://www.w3.org/2000/svg" xmlns:xlink="http://www.w3.org/1999/xlink" x="0px" y="0px"
	 viewBox="0 0 2834.6 1417.3" style="enable-background:new 0 0 2834.6 1417.3;" xml:space="preserve">
<g id="Hazar">
	<path id="Z" d="M1789.9,900.3h-313.7V894l256.2-378.2h-145c-18.1,0-52.8-1.9-71.2,11c-13.5,9.4-31.8,35.7-31.8,35.7l11.1-54.3
		h296.7v6.7L1536,892.7h154.2c21.2,0,76.1-3.3,90.4-18.1c14.4-14.8,22-39.4,22-39.4L1789.9,900.3z"/>
	<path d="M998.4,879.8c0,30.6,5,58,15.1,82.2c10,24.2,24.5,44.6,43.5,61.3c18.9,16.7,42.2,29.3,69.9,38c27.6,8.7,59,13,94.2,13
		c32.4,0,64.8-3.3,97-9.9s64.3-14.9,96.3-24.7c32-9.8,64-20.4,95.9-31.9c32-11.4,64-22,95.9-31.9c32-9.8,63.7-18.1,95.3-24.7
		c31.5-6.6,62.8-9.9,93.9-9.9c23.3,0,46.1,1.9,68.5,5.8c22.4,3.9,43.6,9.6,63.7,17.1s38.8,16.9,56.2,28.1
		c17.4,11.2,32.7,23.9,45.9,38l-6.2,6.2c-26.5-24.2-53.7-41-81.5-50.4c-27.9-9.4-58.7-14-92.5-14c-32.9,0-65.6,3.3-98,9.9
		c-32.4,6.6-64.9,14.9-97.3,24.7s-64.8,20.4-97,31.9c-32.2,11.4-64.2,22-95.9,31.9c-31.8,9.8-63.4,18-94.9,24.7
		c-31.5,6.6-62.8,9.9-93.9,9.9c-43.8,0-85.7-7.3-125.4-21.9c-39.7-14.6-74.7-34.4-104.8-59.3c-30.1-24.9-54.1-53.7-72-86.3
		c-17.8-32.7-26.7-67-26.7-103.1V645.4H678.4v173.4c0,12.3,0.2,23,0.7,31.9s2.2,16.3,5.1,22.3c3,5.9,7.6,10.3,14,13
		s15.5,4.1,27.4,4.1v8.9H576.3v-8.9c11.9,0,21-1.4,27.4-4.1c6.4-2.7,11.1-7.1,14-13c3-5.9,4.7-13.4,5.1-22.3
		c0.4-8.9,0.7-19.5,0.7-31.9V501.5c0-48-3-89.3-8.9-124s-15.1-63.3-27.4-85.7c-12.3-22.4-28.2-38.8-47.6-49.3
		c-19.4-10.5-42.6-15.8-69.5-15.8c-16,0-30.5,1.6-43.5,4.8s-24.7,7.4-34.9,12.7c-10.3,5.3-19.1,11-26.4,17.1
		c-7.3,6.2-13,12.2-17.1,18.2v-40.6c13.4-8.3,36.3-13.2,54.1-16.6c17.8-3.4,36.3-5.1,55.5-5.1c73.1,0,128.1,23.8,165.2,71.3
		c37,47.5,55.5,118.6,55.5,213.1v130.2h265.2V432.3c0-12.3-0.2-23-0.7-31.9s-2.2-16.3-5.1-22.3c-3-5.9-7.7-10.3-14-13
		c-6.4-2.7-15.5-4.1-27.4-4.1v-8.9h149.4v8.9c-11.9,0-21,1.4-27.4,4.1s-11.1,7.1-14,13c-3,5.9-4.7,13.4-5.1,22.3
		c-0.5,8.9-0.7,19.5-0.7,31.9v447.5H998.4z"/>
	<path d="M2172.5,890.8c-22.1-7-21.6-23.9-21.6-47.8v-44.9c-13,21-27.2,40.2-43.8,56.5c1.4,38.9,8.4,53.6,35.9,53.6
		c31.1,0,52.9-5.5,66.6-34.7C2206.6,877.7,2192.1,897.1,2172.5,890.8z"/>
	<path d="M2304.4,849.6V684.8c0,0-0.8-76.7-0.3-131.1c-9.3,8.4-18.5,18.3-27.5,29.8c-7.9,9.9-15.3,20.1-22.1,30.4v235.2
		c0,15.3-3.6,26-10.8,31.9c-7.3,6-31.9,17.6-31.9,17.6H2350c0,0-25.8-10.9-33.7-17.2C2308.4,875.2,2304.4,864.5,2304.4,849.6z"/>
	<path d="M2495.1,511.1c-21.4-13.6-108.2-41.5-190.8,26.5c0.3-17.5,0.7-30.7,1.4-35.1c-9.4,2.2-71.5,5.1-71.5,5.1
		s14.3,11.1,18.5,28.9c1.7,7.9,1.9,21.6,1.9,33.1v22.7c-28.5,39.2-50.1,81.1-71.2,121.7c-10.9,21.1-21.5,41.5-32.5,60.6V617
		c0-9.8-9-72.4-70.1-101.6c-22.4-13.1-111.6-37.8-182,9.2c-18.2,10.6-29,22.6-35,31.8c-4.5,5.4-7.2,12.4-7.2,20
		c0,17.3,14,31.3,31.3,31.3s31.3-14,31.3-31.3s-14-31.3-31.3-31.3c-1.8,0-3.5,0.2-5.2,0.4c47.6-45.1,109.9-46.5,152.2-38.6
		c33.1,8.4,61.7,29.6,69.4,73.4c2,11.2,2.5,25.8,0,31.8c-0.4,1-1,2.1-1.5,3.2c-34,47.6-82.6,57.2-122.4,64.9
		c-9.5,1.8-18.4,3.4-27.3,4.8c-60.8,11.4-117,31.7-115.5,112c1.1,59.9,29.4,87.4,63.4,100c7,2.6,14,4.6,20.9,6
		c11,2.7,23.6,4.4,37.8,4.4c19.4,0,41.9-3.1,67.8-10.8c81.1-24.2,120.2-99.7,161.6-179.6c23.8-45.9,48.4-93.4,82.6-136.6
		c77.3-97.5,164.8-83.4,202.1-71.1c-13.3,3.6-23.2,15.8-23.2,30.2c0,17.3,14,31.3,31.3,31.3s31.3-14,31.3-31.3
		C2513.2,526.9,2505.7,516.1,2495.1,511.1z M1927.5,705.3L1927.5,705.3c0.4-0.3,0.8-0.5,1.2-0.8c4.2-3.1,8.4-5.6,12.2-7.2
		c3.5-1.7,7.1-3,10.8-4.2c8.8-2.6,19-4.6,29.9-6.7c39.5-7.7,87.6-17.1,122.7-62.5v216.3c-21.4,23-46.5,40.6-78.7,50.2
		c-11.7,3.5-22.7,6-33,7.7c-1.1,0.1-2.2,0.2-3.1,0.3c-9.2,0.9-107.6,0.2-107.2-95.4C1882.4,757.8,1906,722,1927.5,705.3z"/>
	<path d="M1411.8,890.8c-22.1-7-21.6-23.9-21.6-47.8V617c0-9.8-9-72.4-70.1-101.6c-22.4-13.1-111.6-37.8-182,9.2
		c-18.2,10.6-29,22.6-35,31.8c-4.5,5.4-7.2,12.4-7.2,20c0,17.3,14,31.3,31.3,31.3s31.3-14,31.3-31.3s-14-31.3-31.3-31.3
		c-1.8,0-3.5,0.2-5.2,0.4c47.6-45.1,109.9-46.5,152.2-38.6c33.1,8.4,61.7,29.6,69.4,73.4c2,11.2,2.5,25.8,0,31.8
		c-0.4,1-1,2.1-1.5,3.2c-34,47.6-82.6,57.2-122.4,64.9c-9.5,1.8-18,2.4-26.2,4.6c-60.8,11.4-118.1,31.9-116.6,112.2
		c1.1,59.9,29.4,87.4,63.4,100c6.9,2.6,13.9,4.5,20.7,6c11.1,2.7,23.7,4.4,38,4.4c19.4,0,41.9-3.1,67.8-10.8
		c32.2-9.6,57.7-27.3,79.5-50.1l0.2,8.2c1.4,38.9,8.4,53.6,35.9,53.6c31.1,0,52.9-5.5,66.6-34.7
		C1445.9,877.7,1431.4,897.1,1411.8,890.8z M1343.6,840.1c-21.4,23.1-46.5,40.7-78.7,50.3c-12.9,3.9-24.8,6.3-36,8
		c-0.1,0-0.1,0-0.2,0c-9.2,0.9-107.6,0.2-107.2-95.4c0.2-45.2,23.8-81.1,45.3-97.7l0.1,0.1c0.3-0.3,0.7-0.6,1.1-0.9
		c4.2-3.1,8.4-5.6,12.2-7.2c3.5-1.7,7.1-3,10.8-4.2c8.8-2.6,19-4.6,29.9-6.7c39.5-7.7,87.6-17.1,122.7-62.5L1343.6,840.1
		L1343.6,840.1z"/>
</g>
</svg>
